<svg width="527" height="526" xmlns="http://www.w3.org/2000/svg" xmlns:xlink="http://www.w3.org/1999/xlink" xml:space="preserve" overflow="hidden"><g transform="translate(-1937 -639)"><path d="M1940.5 902C1940.5 758.682 2056.91 642.5 2200.5 642.5 2344.09 642.5 2460.5 758.682 2460.5 902 2460.5 1045.32 2344.09 1161.5 2200.5 1161.5 2056.91 1161.5 1940.5 1045.32 1940.5 902Z" stroke="#25A9E1" stroke-width="6.875" stroke-miterlimit="8" fill="#25A9E1" fill-rule="evenodd"/><g><g><g><path d="M51.9366 289.825C51.6893 289.763 50.0508 289.547 48.3196 289.361L45.1354 288.99 44.8263 287.846C44.6717 287.228 43.8988 284.724 43.1569 282.251 42.4149 279.778 41.8584 277.706 41.9203 277.645 41.9821 277.583 43.095 277.706 44.4244 277.892 55.9246 279.499 68.1359 277.521 78.3996 272.389 81.5838 270.751 86.561 267.752 86.561 267.412 86.561 267.288 31.1001 207.252 28.9361 205.026 28.5961 204.686 28.2251 204.964 26.7721 206.726 15.3955 220.36 10.14 238.29 12.2422 256.344L12.4586 258.076 7.01763 256.344 1.57665 254.613 1.11293 251.985C-3.24604 227.748 5.75013 202.8 24.4226 187.312 32.7077 180.449 41.6111 175.873 51.7821 173.277 59.4489 171.298 63.6224 170.834 73.7315 170.834 80.4399 170.834 83.7787 170.958 87.0248 171.36 96.7938 172.597 105.697 174.39 119.578 177.914 123.906 179.027 127.461 179.923 127.523 179.923 127.554 179.923 127.77 179.058 127.956 178.007 128.79 173.802 131.48 162.487 132.809 157.696 138.838 136.024 147.494 119.949 159.241 108.634 176.059 92.4967 199.523 86.9011 230.16 91.6929 235.261 92.4967 246.019 94.7843 254.489 96.8556 261.353 98.5559 262.465 98.7723 262.589 98.3395 262.682 98.0613 263.578 93.826 264.629 88.8796 268.432 70.9182 272.142 57.8722 276.037 48.536 288.248 19.4453 308.188 2.78232 333.724 0.278232 337.743-0.123659 343.895 0.0618293 348.037 0.649208L350.572 1.02018 350.881 2.13311C351.036 2.7514 351.809 5.25549 352.551 7.72866 353.293 10.2018 353.849 12.2731 353.787 12.3349 353.725 12.3968 352.613 12.2731 351.283 12.0876 342.503 10.851 333.693 11.6548 325.099 14.4371 320.307 15.9829 317.061 17.4977 317.401 18.0232 317.524 18.2706 329.396 32.7386 343.74 50.1745 365.288 76.3592 369.925 81.8311 370.296 81.5529 370.543 81.3365 371.841 79.5125 373.171 77.4721 381.641 64.7044 385.228 49.4016 383.465 33.6351L383.249 31.9039 388.69 33.6351 394.1 35.3664 394.44 37.2212C395.275 41.7966 395.429 43.4351 395.584 48.2269 395.986 59.3252 393.574 70.4854 388.628 80.5327 381.982 94.0115 371.161 104.863 357.497 111.695 350.974 114.941 343.833 117.136 335.393 118.434 329.427 119.361 315.762 119.454 308.776 118.62 299.47 117.507 290.103 115.621 276.099 112.035 271.771 110.953 268.216 110.087 268.185 110.118 268.123 110.18 267.659 112.313 267.103 114.848 262.929 134.386 257.859 149.689 252.078 160.292 239.774 182.767 223.327 195.071 200.574 198.781 184.561 201.378 168.392 199.832 141.28 193.124 136.952 192.042 133.304 191.269 133.211 191.424 133.119 191.547 132.315 195.195 131.418 199.492 128.018 215.939 124.246 229.727 120.66 238.97 117.321 247.565 112.004 257.21 106.748 264.073 103.811 267.937 97.1957 274.677 93.826 277.212 84.3352 284.353 73.9169 288.496 62.4785 289.639 59.6035 289.949 53.1114 290.041 51.9366 289.825ZM98.0304 256.994C100.442 254.397 103.564 250.192 106.346 245.772L107.923 243.237 106.13 241.351C80.5945 214.455 54.5953 187.343 54.3171 187.343 52.8641 187.343 42.384 192.784 39.7253 194.886L38.8288 195.597 39.9108 196.865C41.8275 199.152 96.5774 258.137 96.7629 258.137 96.8556 258.137 97.443 257.612 98.0304 256.994ZM114.786 228.799C116.177 225.244 118.156 219.463 119.114 216.217L119.578 214.61 105.79 198.905 92.0329 183.169 90.3017 182.922C87.5812 182.52 73.5769 182.891 70.0526 183.448 68.3523 183.726 66.9302 183.973 66.8993 184.035 66.7757 184.159 112.869 232.478 113.117 232.478 113.24 232.478 113.982 230.84 114.786 228.799ZM124.246 195.659C124.988 192.196 125.483 189.352 125.328 189.198 124.864 188.796 107.676 184.962 107.428 185.21 107.336 185.333 122.484 201.811 122.731 201.842 122.824 201.873 123.504 199.09 124.246 195.659ZM191.671 188.27C192.938 188.054 194.02 187.868 194.082 187.807 194.237 187.652 152.935 135.128 152.657 135.097 152.069 135.066 144.959 149.009 144.897 150.307 144.866 150.802 149.472 156.614 160.447 170L176.059 188.981 182.706 188.796C186.354 188.672 190.403 188.456 191.671 188.27ZM158.685 186.663C158.53 186.446 154.233 181.191 149.163 174.977L139.92 163.724 139.487 165.084C138.219 169.381 135.19 181.809 135.406 181.933 135.839 182.211 146.783 184.777 151.636 185.766 158.747 187.188 159.118 187.219 158.685 186.663ZM208.427 184.282C212.662 182.829 220.885 178.656 220.669 178.068 220.452 177.512 172.318 113.797 172.102 113.797 171.545 113.735 167.217 117.476 163.755 120.907 160.231 124.431 160.107 124.586 160.571 125.235 163.075 128.821 206.139 184.839 206.386 184.839 206.572 184.87 207.499 184.591 208.427 184.282ZM234.24 166.723C236.93 163.693 239.032 161.034 241.413 157.541L243.267 154.821 233.437 141.775C201.378 99.3288 203.604 102.173 202.584 102.08 200.203 101.833 184.035 106.192 184.313 106.996 184.468 107.459 231.705 169.072 231.891 169.103 232.014 169.103 233.066 168.021 234.24 166.723ZM251.893 137.354C252.727 135.159 254.211 130.985 255.17 128.049 256.87 122.7 260.301 109.747 260.301 108.572 260.301 108.016 259.683 107.799 255.139 106.686 241.536 103.41 231.458 101.74 222.307 101.215 218.505 100.998 218.474 100.998 218.907 101.616 220.422 103.75 249.976 141.28 250.13 141.28 250.254 141.28 251.027 139.518 251.893 137.354ZM324.604 106.625C328.499 106.13 333.909 105.048 333.816 104.77 333.755 104.646 323.305 91.7856 310.538 76.2665 290.103 51.3492 287.29 48.0414 286.95 48.5051 286.362 49.2161 283.766 54.3789 282.405 57.6249 281.323 60.0981 281.262 60.4072 281.663 61.0564 281.911 61.4583 290.041 72.0002 299.718 84.5207L317.339 107.274 319.812 107.119C321.172 106.996 323.336 106.81 324.604 106.625ZM295.637 98.0922C292.143 93.3623 286.486 85.7573 283.055 81.1819L276.872 72.8658 276.315 74.6898C274.213 81.6456 269.947 100.38 270.38 100.782 271.4 101.709 296.441 106.532 300.707 106.625L302.036 106.656 295.637 98.0922ZM354.993 95.7118C356.817 94.537 358.27 93.3623 358.239 93.1459 358.084 92.4657 305.591 25.6901 305.22 25.6592 304.757 25.6592 298.45 31.873 296.533 34.1916L295.235 35.7683 307.508 50.8855C314.247 59.2016 326.026 73.7005 333.631 83.0986L347.512 100.163 349.583 99.0506C350.727 98.4323 353.169 96.9174 354.993 95.7118Z" fill="#1C97CE" transform="matrix(1.00327 0 0 -1 1994 1025.99)"/></g></g></g><g><g><g><path d="M54.8021 305.815C54.5411 305.75 52.8122 305.521 50.9855 305.326L47.6256 304.934 47.2994 303.727C47.1363 303.075 46.3208 300.433 45.5379 297.823 44.755 295.213 44.1679 293.028 44.2331 292.963 44.2983 292.897 45.4727 293.028 46.8753 293.224 59.0101 294.92 71.8951 292.832 82.725 287.417 86.0849 285.688 91.3368 282.524 91.3368 282.165 91.3368 282.035 32.816 218.686 30.5326 216.338 30.1738 215.979 29.7823 216.272 28.2492 218.132 16.2449 232.517 10.6994 251.437 12.9176 270.487L13.146 272.314 7.4048 270.487 1.66363 268.661 1.17433 265.888C-3.42513 240.314 6.06737 213.989 25.77 197.646 34.5122 190.405 43.9069 185.577 54.639 182.837 62.7288 180.749 67.1325 180.26 77.7994 180.26 84.878 180.26 88.4009 180.39 91.8261 180.814 102.134 182.119 111.529 184.011 126.175 187.73 130.742 188.904 134.493 189.85 134.559 189.85 134.591 189.85 134.82 188.937 135.015 187.828 135.896 183.391 138.734 171.452 140.137 166.396 146.498 143.529 155.631 126.567 168.027 114.628 185.772 97.5999 210.531 91.6956 242.858 96.7517 248.24 97.5999 259.592 100.014 268.53 102.199 275.772 103.993 276.946 104.222 277.077 103.765 277.174 103.472 278.12 99.0025 279.23 93.7833 283.242 74.8309 287.156 61.0652 291.266 51.2138 304.151 20.5182 325.191 2.93582 352.136 0.293582 356.376-0.130481 362.868 0.0652405 367.239 0.685026L369.914 1.07647 370.24 2.2508C370.403 2.9032 371.219 5.54545 372.002 8.15507 372.784 10.7647 373.372 12.9502 373.306 13.0155 373.241 13.0807 372.067 12.9502 370.664 12.7545 361.4 11.4497 352.103 12.2978 343.035 15.2337 337.979 16.8647 334.554 18.4631 334.912 19.0176 335.043 19.2786 347.569 34.5449 362.705 52.9427 385.441 80.5721 390.334 86.3459 390.726 86.0523 390.987 85.8239 392.357 83.8993 393.759 81.7464 402.697 68.2742 406.481 52.1272 404.622 35.4909L404.394 33.6641 410.135 35.4909 415.843 37.3176 416.202 39.2748C417.083 44.1026 417.246 45.8315 417.409 50.8876 417.833 62.5983 415.289 74.3742 410.069 84.9758 403.056 99.1982 391.639 110.648 377.221 117.857 370.338 121.282 362.803 123.598 353.897 124.968 347.602 125.947 333.183 126.045 325.811 125.164 315.993 123.99 306.109 122 291.332 118.216 286.765 117.074 283.013 116.161 282.981 116.193 282.916 116.259 282.426 118.509 281.839 121.184 277.435 141.8 272.086 157.947 265.986 169.136 253.003 192.851 235.649 205.834 211.64 209.748 194.743 212.488 177.683 210.857 149.075 203.779 144.508 202.637 140.659 201.822 140.561 201.985 140.463 202.115 139.615 205.964 138.669 210.499 135.081 227.853 131.101 242.401 127.317 252.155 123.794 261.223 118.183 271.401 112.638 278.642 109.539 282.72 102.558 289.831 99.0025 292.506 88.9881 300.041 77.9951 304.412 65.9256 305.619 62.8919 305.946 56.0416 306.043 54.8021 305.815ZM103.439 271.172C105.983 268.432 109.278 263.996 112.214 259.331L113.877 256.656 111.985 254.666C85.0411 226.287 57.6074 197.679 57.3138 197.679 55.7807 197.679 44.7224 203.42 41.9171 205.638L40.9711 206.388 42.1128 207.726C44.1352 210.14 101.906 272.379 102.101 272.379 102.199 272.379 102.819 271.825 103.439 271.172ZM121.119 241.423C122.587 237.671 124.675 231.571 125.686 228.146L126.175 226.45 111.627 209.879 97.1106 193.275 95.2838 193.014C92.4132 192.59 77.6363 192.982 73.9175 193.569 72.1234 193.862 70.6229 194.123 70.5903 194.188 70.4598 194.319 119.097 245.304 119.358 245.304 119.488 245.304 120.271 243.576 121.119 241.423ZM131.101 206.454C131.884 202.8 132.406 199.799 132.243 199.636 131.753 199.212 113.616 195.167 113.355 195.428 113.258 195.559 129.242 212.945 129.502 212.978 129.6 213.01 130.318 210.075 131.101 206.454ZM202.246 198.657C203.583 198.429 204.725 198.233 204.79 198.168 204.953 198.005 161.372 142.583 161.079 142.551 160.459 142.518 152.956 157.23 152.891 158.6 152.859 159.122 157.719 165.254 169.299 179.379L185.772 199.408 192.786 199.212C196.635 199.082 200.908 198.853 202.246 198.657ZM167.44 196.961C167.277 196.733 162.743 191.187 157.393 184.631L147.639 172.757 147.183 174.192C145.845 178.726 142.648 191.84 142.877 191.97 143.333 192.264 154.881 194.971 160.002 196.015 167.505 197.516 167.897 197.548 167.44 196.961ZM219.926 194.449C224.395 192.916 233.072 188.513 232.844 187.893 232.615 187.306 181.825 120.075 181.597 120.075 181.01 120.01 176.443 123.957 172.79 127.578 169.071 131.297 168.94 131.46 169.43 132.145 172.072 135.929 217.512 195.037 217.773 195.037 217.969 195.069 218.947 194.776 219.926 194.449ZM247.164 175.921C250.002 172.724 252.22 169.919 254.732 166.233L256.689 163.362 246.316 149.597C212.488 104.809 214.837 107.81 213.761 107.712 211.249 107.451 194.188 112.051 194.482 112.899 194.645 113.388 244.489 178.4 244.685 178.433 244.815 178.433 245.924 177.291 247.164 175.921ZM265.79 144.932C266.671 142.616 268.237 138.212 269.248 135.113 271.042 129.47 274.663 115.802 274.663 114.562 274.663 113.975 274.01 113.747 269.215 112.573 254.862 109.115 244.228 107.353 234.572 106.799 230.56 106.57 230.527 106.57 230.984 107.223 232.583 109.474 263.768 149.075 263.931 149.075 264.061 149.075 264.877 147.215 265.79 144.932ZM342.513 112.507C346.623 111.985 352.332 110.844 352.234 110.55 352.168 110.42 341.143 96.8496 327.671 80.4742 306.109 54.1823 303.14 50.6919 302.781 51.1812 302.162 51.9315 299.421 57.3791 297.986 60.8042 296.844 63.4138 296.779 63.74 297.203 64.425 297.464 64.8491 306.043 75.9726 316.254 89.1838L334.847 113.192 337.457 113.029C338.892 112.899 341.175 112.703 342.513 112.507ZM311.948 103.504C308.262 98.5132 302.292 90.4886 298.671 85.6608L292.147 76.886 291.56 78.8106C289.342 86.1501 284.84 105.918 285.297 106.342 286.373 107.321 312.796 112.409 317.297 112.507L318.7 112.54 311.948 103.504ZM374.579 100.992C376.503 99.7528 378.036 98.5132 378.004 98.2849 377.841 97.5672 322.451 27.1074 322.06 27.0748 321.571 27.0748 314.916 33.6315 312.894 36.078L311.524 37.7417 324.474 53.693C331.585 62.4678 344.013 77.7667 352.038 87.6833L366.685 105.69 368.87 104.515C370.077 103.863 372.654 102.265 374.579 100.992Z" fill="#FFFFFF" transform="matrix(1.0011 0 0 -1 1991 1066.99)"/></g></g></g></g></svg>